<?xml version="1.0" encoding="UTF-8"?>
<svg xmlns="http://www.w3.org/2000/svg" viewBox="0 0 64 64" width="64" height="64">
  <title>دقّة Favicon</title>
  <rect width="64" height="64" rx="14" ry="14" fill="#FFFFFF"/>
  <g transform="translate(10.94,8.00) scale(0.1678)">
  <g transform="translate(0.000000,286.000000) scale(0.100000,-0.100000)"
fill="#000000" stroke="none">
<path d="M302 2497 c9 -113 64 -203 153 -251 39 -20 55 -21 470 -27 447 -6
462 -7 569 -53 63 -26 164 -104 207 -159 94 -118 139 -256 139 -424 0 -213
-58 -371 -183 -498 -103 -104 -222 -159 -377 -174 l-66 -6 -157 -163 c-86 -90
-157 -167 -157 -173 0 -13 389 -12 487 2 237 32 476 172 619 362 214 285 265
725 124 1068 -114 276 -374 477 -697 540 -37 7 -257 13 -597 16 l-539 5 5 -65z"/>
</g>
  <g transform="translate(0.000000,286.000000) scale(0.100000,-0.100000)"
fill="#1E66FF" stroke="none">
<path d="M163 1019 c-50 -52 -101 -106 -112 -121 l-22 -27 291 -288 c160 -158
295 -289 299 -291 7 -2 121 113 220 223 30 33 131 140 225 238 94 98 173 182
174 188 2 5 -79 9 -205 9 l-208 1 -101 -108 -102 -107 -184 188 -184 189 -91
-94z"/>
</g>
</g>
</svg>
