<?xml version="1.0" encoding="UTF-8" standalone="no"?>
<svg xmlns="http://www.w3.org/2000/svg"
     viewBox="235 302 1075 392"
     width="1075" height="392"
     shape-rendering="geometricPrecision">
  <title>دقّة — Diqqa Logo</title>
  <desc>Two-color vector logo: dark green wordmark with bright blue check accent.</desc>
  <g transform="translate(0.000000,1024.000000) scale(0.100000,-0.100000)"
fill="#000000" stroke="none">
<path d="M3597 6794 c-90 -47 -143 -161 -118 -259 44 -176 246 -243 381 -127
96 82 115 208 46 310 -65 98 -202 132 -309 76z M4295 6806 c-91 -39 -139 -117
-139 -221 0 -53 5 -80 21 -111 92 -173 353 -159 430 23 19 46 16 140 -6 188
-23 49 -74 99 -123 119 -45 19 -142 20 -183 2z M8625 6801 c-84 -39 -135 -120
-135 -216 0 -91 33 -150 115 -204 34 -22 51 -26 116 -26 67 0 81 4 125 30 158
98 147 333 -19 414 -56 27 -146 28 -202 2z M9292 6799 c-55 -27 -99 -81 -117
-143 -19 -62 -19 -80 0 -144 32 -105 127 -169 237 -159 109 10 185 77 209 184
25 109 -28 220 -126 264 -56 26 -148 25 -203 -2z M3663 6036 c-305 -58 -568
-230 -733 -479 -114 -173 -171 -356 -173 -557 -2 -296 88 -529 282 -733 157
-164 336 -263 571 -313 58 -12 156 -17 423 -21 l347 -5 0 175 0 176 -332 4
c-374 4 -396 7 -547 79 -68 32 -101 57 -171 127 -72 70 -95 101 -128 171 -66
136 -91 282 -73 414 43 311 247 537 555 616 146 37 505 26 814 -25 l32 -6 0
-512 c0 -307 4 -538 11 -577 14 -87 59 -217 100 -288 44 -73 178 -207 251
-251 32 -18 97 -47 145 -65 l88 -31 2498 -5 2498 -5 -3 635 -4 635 -26 95
c-33 122 -64 190 -132 295 -130 199 -350 357 -601 431 -74 21 -117 27 -241 31
-177 6 -277 -5 -408 -48 -231 -76 -444 -237 -570 -431 -68 -105 -98 -169 -131
-278 -66 -220 -54 -469 31 -672 38 -91 126 -222 202 -300 l66 -68 -1555 2
-1554 3 -52 21 c-119 49 -194 130 -235 254 -22 64 -23 76 -26 726 l-3 662
-162 31 c-453 86 -507 93 -752 97 -165 2 -250 -1 -302 -10z m5574 -352 c32 -8
96 -33 143 -56 118 -59 251 -189 304 -298 72 -150 76 -181 76 -652 l0 -418
-343 0 c-380 0 -473 8 -595 49 -116 40 -184 83 -283 181 -73 72 -93 100 -132
180 -217 445 54 953 548 1029 74 12 205 5 282 -15z M10802 5897 c9 -113 64
-203 153 -251 39 -20 55 -21 470 -27 447 -6 462 -7 569 -53 63 -26 164 -104
207 -159 94 -118 139 -256 139 -424 0 -213 -58 -371 -183 -498 -103 -104 -222
-159 -377 -174 l-66 -6 -157 -163 c-86 -90 -157 -167 -157 -173 0 -13 389 -12
487 2 237 32 476 172 619 362 214 285 265 725 124 1068 -114 276 -374 477
-697 540 -37 7 -257 13 -597 16 l-539 5 5 -65z"/>
</g>
  <g transform="translate(0.000000,1024.000000) scale(0.100000,-0.100000)"
fill="#1E66FF" stroke="none">
<path d="M10663 4419 c-50 -52 -101 -106 -112 -121 l-22 -27 291 -288 c160
-158 295 -289 299 -291 7 -2 121 113 220 223 30 33 131 140 225 238 94 98 173
182 174 188 2 5 -79 9 -205 9 l-208 1 -101 -108 -102 -107 -184 188 -184 189
-91 -94z"/>
</g>
</svg>
